<svg width="207" height="36" viewBox="0 0 207 36" fill="none" xmlns="http://www.w3.org/2000/svg">
<g clip-path="url(#clip0_2238_798)">
<path d="M155.417 31.2768V16.1421H159.987V28.1622H166.849V31.2768H155.417Z" fill="white"/>
<path d="M175.291 26.0156C175.232 26.0156 175.142 26.0156 175.024 26.0076C174.903 25.9997 174.813 25.9937 174.744 25.9937C173.758 25.9937 173.014 26.143 172.512 26.4298C172.014 26.7166 171.763 27.1467 171.763 27.7142C171.763 28.1424 171.903 28.4929 172.204 28.7617C172.502 29.0326 172.88 29.17 173.343 29.17C174.001 29.17 174.493 28.9449 174.826 28.5088C175.159 28.0687 175.324 27.4096 175.324 26.5333C175.324 26.3939 175.32 26.2924 175.318 26.2227C175.314 26.153 175.308 26.0813 175.289 26.0156M175.485 31.2769C175.459 31.1116 175.44 30.8965 175.416 30.6416C175.393 30.3867 175.369 30.086 175.336 29.7355C175.008 30.3071 174.519 30.7531 173.866 31.0638C173.219 31.3725 172.455 31.5278 171.583 31.5278C170.384 31.5278 169.428 31.2012 168.707 30.556C167.984 29.9048 167.737 29.0644 167.746 28.001C167.76 26.5732 168.172 25.695 169.265 25.0199C170.36 24.3528 171.973 24.0162 174.103 24.0162C174.425 24.0162 174.664 24.0162 174.832 24.0242C174.995 24.0242 175.146 24.0341 175.291 24.0401V23.3949C175.291 22.8632 175.169 22.451 174.928 22.1602C174.683 21.8675 174.34 21.7221 173.895 21.7221C173.476 21.7221 173.131 21.8595 172.865 22.1323C172.6 22.4052 172.465 22.7596 172.465 23.1977V23.3949H168.407C168.428 22.1702 168.889 21.2601 169.802 20.6587C170.719 20.0653 172.108 19.7686 173.97 19.7686C175.935 19.7686 177.329 20.0951 178.15 20.7483C178.973 21.4095 179.382 22.5306 179.382 24.1138V31.2769H175.483H175.485Z" fill="white"/>
<path d="M180.954 31.2769V20.0414H185.092L185.137 21.6464C185.478 21.0709 185.982 20.6129 186.638 20.2764C187.293 19.9338 188.018 19.7686 188.815 19.7686C190.217 19.7686 191.283 20.125 192.015 20.8439C192.742 21.5628 193.105 22.6123 193.105 23.9943V31.2769H188.859V25.5456C188.859 24.303 188.729 23.4666 188.463 23.0464C188.206 22.6242 187.753 22.4111 187.109 22.4111C186.503 22.4111 186.033 22.6183 185.704 23.0305C185.371 23.4407 185.204 24.0282 185.204 24.7829V31.2769H180.956H180.954Z" fill="white"/>
<path d="M198.66 25.6152C198.66 26.7742 198.831 27.6305 199.172 28.1981C199.511 28.7537 200.03 29.0365 200.737 29.0365C201.378 29.0365 201.886 28.7318 202.27 28.1244C202.656 27.515 202.844 26.6786 202.844 25.6152C202.844 24.5518 202.648 23.6895 202.258 23.0881C201.87 22.4907 201.333 22.194 200.637 22.194C199.991 22.194 199.503 22.4847 199.168 23.0662C198.831 23.6437 198.662 24.4941 198.662 25.6152M202.932 31.2788L202.885 29.8012C202.37 30.3966 201.803 30.8367 201.178 31.1234C200.553 31.4102 199.83 31.5496 199.007 31.5496C197.484 31.5496 196.303 31.0378 195.466 30.0063C194.627 28.9747 194.21 27.525 194.21 25.659C194.21 23.7931 194.637 22.3015 195.492 21.2879C196.348 20.2743 197.58 19.7705 199.189 19.7705C199.928 19.7705 200.604 19.8999 201.215 20.1687C201.825 20.4396 202.34 20.8219 202.75 21.3198V16.1421H207V31.2788H202.932Z" fill="white"/>
<path d="M45.1706 25.4977V31.2788H40.5962V16.1421H45.1706V22.1203H50.6518V16.1421H55.2263V31.2788H50.6518V25.4977H45.1706Z" fill="white"/>
<path d="M60.7483 25.6371C60.7483 26.9016 60.9158 27.8157 61.2507 28.3833C61.5917 28.9408 62.1349 29.2256 62.8926 29.2256C63.6502 29.2256 64.1934 28.9448 64.5345 28.3852C64.8755 27.8316 65.0471 26.9136 65.0471 25.6391C65.0471 24.3646 64.8755 23.4426 64.5345 22.879C64.1955 22.3135 63.6482 22.0327 62.8926 22.0327C62.137 22.0327 61.6019 22.3135 61.2589 22.879C60.9199 23.4426 60.7483 24.3626 60.7483 25.6391M56.2739 25.659C56.2739 23.7692 56.8519 22.3155 57.9975 21.2879C59.1473 20.2603 60.783 19.7485 62.915 19.7485C65.0471 19.7485 66.6583 20.2603 67.806 21.2859C68.9537 22.3055 69.5276 23.7632 69.5276 25.661C69.5276 27.5588 68.9537 29.0165 67.806 30.0381C66.6583 31.0617 65.0287 31.5775 62.915 31.5775C60.8014 31.5775 59.1473 31.0597 57.9975 30.0361C56.8539 29.0066 56.2739 27.5469 56.2739 25.661" fill="white"/>
<path d="M98.1383 31.2768V16.1421H102.341V24.9919L106.064 20.0433H110.606L106.905 25.1034L111.018 31.2768H106.129L102.341 25.1891V31.2768H98.1383Z" fill="white"/>
<path d="M115.023 25.6371C115.023 26.9016 115.19 27.8157 115.527 28.3833C115.864 28.9408 116.408 29.2256 117.165 29.2256C117.923 29.2256 118.468 28.9448 118.809 28.3852C119.144 27.8316 119.316 26.9136 119.316 25.6391C119.316 24.3646 119.144 23.4426 118.809 22.879C118.466 22.3135 117.921 22.0327 117.165 22.0327C116.41 22.0327 115.875 22.3135 115.534 22.879C115.195 23.4426 115.023 24.3626 115.023 25.6391M110.549 25.659C110.549 23.7692 111.122 22.3155 112.272 21.2879C113.418 20.2603 115.054 19.7485 117.19 19.7485C119.326 19.7485 120.933 20.2603 122.083 21.2859C123.226 22.3055 123.802 23.7632 123.802 25.661C123.802 27.5588 123.224 29.0165 122.083 30.0381C120.933 31.0617 119.301 31.5775 117.19 31.5775C115.078 31.5775 113.418 31.0597 112.272 30.0361C111.122 29.0066 110.549 27.5469 110.549 25.661" fill="white"/>
<path d="M142.461 25.2966C142.461 26.3401 142.633 27.1267 142.984 27.6544C143.331 28.1921 143.84 28.459 144.526 28.459C145.212 28.459 145.694 28.1822 146.066 27.6285C146.436 27.0729 146.623 26.2963 146.623 25.2966C146.623 24.2969 146.442 23.5243 146.08 22.9707C145.723 22.4131 145.218 22.1402 144.571 22.1402C143.866 22.1402 143.34 22.4031 142.986 22.9288C142.633 23.4605 142.461 24.2471 142.461 25.2966ZM146.952 20.0393H150.814V30.3588C150.814 31.3803 150.7 32.1689 150.473 32.7425C150.25 33.31 149.872 33.8158 149.344 34.25C148.723 34.7737 147.963 35.166 147.071 35.4309C146.182 35.6897 145.157 35.8232 144.014 35.8232C142.363 35.8232 141.061 35.4767 140.109 34.7797C139.159 34.0847 138.669 33.1348 138.647 31.93L142.617 31.924V31.9977C142.617 32.398 142.782 32.7305 143.111 32.9934C143.44 33.2582 143.866 33.3837 144.391 33.3837C145.188 33.3837 145.772 33.1806 146.137 32.7664C146.501 32.3601 146.687 31.703 146.687 30.8068V29.375C146.26 29.9007 145.739 30.293 145.131 30.5599C144.518 30.8228 143.817 30.9602 143.033 30.9602C141.426 30.9602 140.195 30.4762 139.341 29.5244C138.481 28.5645 138.057 27.1765 138.057 25.3623C138.057 23.5482 138.479 22.2119 139.327 21.2262C140.174 20.2385 141.357 19.7466 142.876 19.7466C143.736 19.7466 144.489 19.8939 145.131 20.1887C145.772 20.4814 146.346 20.9394 146.846 21.5607L146.954 20.0413L146.952 20.0393Z" fill="white"/>
<path d="M124.893 31.2769V20.0414H129.03L129.075 21.6464C129.418 21.0709 129.916 20.6129 130.578 20.2764C131.236 19.9338 131.957 19.7686 132.751 19.7686C134.156 19.7686 135.224 20.125 135.953 20.8439C136.68 21.5628 137.044 22.6123 137.044 23.9943V31.2769H132.796V25.5456C132.796 24.303 132.667 23.4666 132.406 23.0464C132.144 22.6242 131.691 22.4111 131.052 22.4111C130.413 22.4111 129.976 22.6183 129.643 23.0305C129.308 23.4407 129.142 24.0282 129.142 24.7829V31.2769H124.895H124.893Z" fill="white"/>
<path d="M70.5773 31.2569V20.0214H74.7147L74.7596 21.6225C75.1007 21.0529 75.6051 20.5949 76.2627 20.2544C76.9202 19.9119 77.6432 19.7466 78.4355 19.7466C79.8426 19.7466 80.9065 20.105 81.6376 20.8199C82.3667 21.5369 82.7302 22.5923 82.7302 23.9703V31.2549H78.4825V25.5256C78.4825 24.279 78.3498 23.4426 78.0884 23.0204C77.829 22.5983 77.3777 22.3872 76.7324 22.3872C76.1279 22.3872 75.6602 22.5943 75.3273 23.0045C74.9965 23.4128 74.825 24.0022 74.825 24.7589V31.2529H70.5773V31.2569Z" fill="white"/>
<path d="M88.2072 25.2966C88.2072 26.3401 88.3787 27.1267 88.7259 27.6544C89.0751 28.1921 89.5877 28.459 90.2677 28.459C90.9478 28.459 91.4399 28.1822 91.8096 27.6285C92.1772 27.0729 92.361 26.2963 92.361 25.2966C92.361 24.2969 92.1813 23.5243 91.8239 22.9707C91.4665 22.4131 90.96 22.1402 90.3106 22.1402C89.6081 22.1402 89.0792 22.4031 88.73 22.9288C88.3808 23.4605 88.2052 24.2471 88.2052 25.2966M92.7 20.0393H96.5597V30.3588C96.5597 31.3803 96.4494 32.1689 96.2247 32.7425C95.9981 33.31 95.6223 33.8158 95.0913 34.25C94.4705 34.7737 93.7129 35.166 92.8204 35.4309C91.926 35.6897 90.911 35.8232 89.7654 35.8232C88.1153 35.8232 86.8104 35.4767 85.8608 34.7797C84.903 34.0847 84.419 33.1348 84.3945 31.93L88.3665 31.924V31.9977C88.3665 32.398 88.5278 32.7305 88.8607 32.9934C89.1854 33.2582 89.6122 33.3837 90.137 33.3837C90.9376 33.3837 91.5155 33.1806 91.8872 32.7664C92.2527 32.3601 92.4345 31.703 92.4345 30.8068V29.375C92.0077 29.9007 91.489 30.293 90.8784 30.5599C90.2637 30.8228 89.5632 30.9602 88.779 30.9602C87.1739 30.9602 85.9424 30.4762 85.0888 29.5244C84.2311 28.5645 83.8022 27.1765 83.8022 25.3623C83.8022 23.5482 84.2291 22.2119 85.0766 21.2262C85.922 20.2385 87.1044 19.7466 88.6238 19.7466C89.4795 19.7466 90.231 19.8939 90.8784 20.1887C91.5155 20.4814 92.0934 20.9394 92.5938 21.5607L92.702 20.0413L92.7 20.0393Z" fill="white"/>
<path d="M11.3422 10.0929V0.000488281H6.18573V12.1082H15.5041V10.0929H11.3422Z" fill="white"/>
<path d="M5.12363 13.0735V0H0.012085V15.1366L15.504 15.1346V13.1174L5.12363 13.0735Z" fill="white"/>
<path d="M6.17755 19.1714V31.2791H11.3687V21.1827H15.5041V19.1714H6.17755Z" fill="white"/>
<path d="M0 16.1426V31.2792H5.14013V18.1619H15.5041V16.1446L0 16.1426Z" fill="white"/>
<path d="M25.8763 12.1082L25.8722 0.000488281H20.6994V10.0929H16.5395V12.1082H25.8763Z" fill="white"/>
<path d="M32.0579 15.1371V0.000488281H26.8647V13.1178H16.5395V15.1351L32.0579 15.1371Z" fill="white"/>
<path d="M20.6953 21.1927V31.2791H25.8661V19.1714H16.5395V21.1927H20.6953Z" fill="white"/>
<path d="M26.8647 18.1619V31.2792H32.0661V16.1426L16.5395 16.1446V18.1619H26.8647Z" fill="white"/>
</g>
<defs>
<clipPath id="clip0_2238_798">
<rect width="207" height="36" fill="white"/>
</clipPath>
</defs>
</svg>
